<?xml version="1.0" encoding="UTF-8" standalone="no"?>
<svg
   version="1.1"
   id="Layer_1"
   x="0px"
   y="0px"
   viewBox="0 0 255.5 255.5"
   xml:space="preserve"
   width="256"
   height="256"
   sodipodi:docname="logo.svg"
   inkscape:version="1.4.2 (ebf0e940d0, 2025-05-08)"
   xmlns:inkscape="http://www.inkscape.org/namespaces/inkscape"
   xmlns:sodipodi="http://sodipodi.sourceforge.net/DTD/sodipodi-0.dtd"
   xmlns="http://www.w3.org/2000/svg"
   xmlns:svg="http://www.w3.org/2000/svg"><defs
   id="defs34" /><sodipodi:namedview
   id="namedview34"
   pagecolor="#ffffff"
   bordercolor="#000000"
   borderopacity="0.25"
   inkscape:showpageshadow="2"
   inkscape:pageopacity="0.0"
   inkscape:pagecheckerboard="0"
   inkscape:deskcolor="#d1d1d1"
   inkscape:zoom="1.546875"
   inkscape:cx="255.67677"
   inkscape:cy="256"
   inkscape:window-width="1920"
   inkscape:window-height="1011"
   inkscape:window-x="0"
   inkscape:window-y="0"
   inkscape:window-maximized="1"
   inkscape:current-layer="Layer_1" />
<g
   id="g34"
   transform="matrix(0.49999874,0,0,0.49999874,0,0.07822215)">
	<rect
   x="7.5"
   y="87.5"
   style="fill:#787680"
   width="496"
   height="336"
   id="rect1" />
	<polygon
   style="fill:#787680"
   points="503.5,423.5 503.5,199.5 455.5,151.5 55.5,151.5 7.5,199.5 7.5,423.5 "
   id="polygon1" />
	<polygon
   style="fill:#57565c"
   points="487.5,423.5 503.5,423.5 503.5,199.5 455.5,151.5 431.5,151.5 487.5,207.5 "
   id="polygon2" />
	<path
   style="fill:#c6fff6"
   d="m 463.5,359.5 h -104 v -144 h 104 c 4.418,0 8,3.582 8,8 v 128 c 0,4.418 -3.582,8 -8,8 z"
   id="path2" />
	<path
   style="fill:#f072ae"
   d="m 359.5,359.5 c 39.764,0 72,-32.236 72,-72 0,-39.764 -32.236,-72 -72,-72"
   id="path3" />
	<path
   style="fill:#ff3f62"
   d="m 375.5,217.28 v 140.44 c -5.15,1.16 -10.5,1.78 -16,1.78 v -144 c 5.5,0 10.85,0.62 16,1.78 z"
   id="path4" />
	<path
   style="fill:#ffffff"
   d="m 359.5,319.5 c 17.673,0 32,-14.327 32,-32 0,-17.673 -14.327,-32 -32,-32"
   id="path5" />
	<path
   style="fill:#c6fff6"
   d="m 375.5,259.78 v 55.44 c -4.71,2.72 -10.17,4.28 -16,4.28 v -64 c 5.83,0 11.29,1.56 16,4.28 z"
   id="path6" />
	<path
   style="fill:#c6fff6"
   d="m 151.5,359.5 h -96 c -8.837,0 -16,-7.163 -16,-16 v -112 c 0,-8.837 7.163,-16 16,-16 h 96 z"
   id="path7" />
	<path
   style="fill:#f072ae"
   d="m 151.5,359.5 c -39.765,0 -72,-32.236 -72,-72 0,-39.764 32.235,-72 72,-72"
   id="path8" />
	<path
   style="fill:#ff3f62"
   d="m 151.5,215.5 v 144 c -5.5,0 -10.85,-0.62 -16,-1.78 V 217.28 c 5.15,-1.16 10.5,-1.78 16,-1.78 z"
   id="path9" />
	<path
   style="fill:#ffffff"
   d="m 151.5,319.5 c -17.673,0 -32,-14.327 -32,-32 0,-17.673 14.327,-32 32,-32"
   id="path10" />
	<path
   style="fill:#c6fff6"
   d="m 151.5,255.5 v 64 c -5.83,0 -11.29,-1.56 -16,-4.28 v -55.44 c 4.71,-2.72 10.17,-4.28 16,-4.28 z"
   id="path11" />
	<polygon
   style="fill:#ffe477"
   points="55.5,151.5 7.5,199.5 7.5,87.5 503.5,87.5 503.5,199.5 455.5,151.5 "
   id="polygon11" />
	<polygon
   style="fill:#ffb655"
   points="487.5,87.5 503.5,87.5 503.5,199.5 487.5,183.5 "
   id="polygon12" />
	<polyline
   style="fill:none;stroke:#000000;stroke-width:15;stroke-miterlimit:10"
   points="7.5,199.5 55.5,151.5 455.5,151.5 &#10;		503.5,199.5 	"
   id="polyline12" />
	<polyline
   style="fill:none;stroke:#000000;stroke-width:15;stroke-miterlimit:10"
   points="119.5,87.5 7.5,87.5 7.5,423.5 &#10;		503.5,423.5 503.5,87.5 135.5,87.5 	"
   id="polyline13" />
	<path
   style="fill:none;stroke:#000000;stroke-width:15;stroke-miterlimit:10"
   d="m 151.5,359.5 h -96 c -8.837,0 -16,-7.163 -16,-16 v -112 c 0,-8.837 7.163,-16 16,-16 h 96 z"
   id="path13" />
	<path
   style="fill:none;stroke:#000000;stroke-width:15;stroke-miterlimit:10"
   d="m 359.5,319.5 c 17.673,0 32,-14.327 32,-32 0,-17.673 -14.327,-32 -32,-32"
   id="path14" />
	<path
   style="fill:none;stroke:#000000;stroke-width:15;stroke-miterlimit:10"
   d="m 359.5,359.5 c 39.764,0 72,-32.236 72,-72 0,-39.764 -32.236,-72 -72,-72"
   id="path15" />
	<path
   style="fill:none;stroke:#000000;stroke-width:15;stroke-miterlimit:10"
   d="m 151.5,319.5 c -17.673,0 -32,-14.327 -32,-32 0,-17.673 14.327,-32 32,-32"
   id="path16" />
	<path
   style="fill:none;stroke:#000000;stroke-width:15;stroke-miterlimit:10"
   d="m 471.5,295.5 v 56 c 0,4.418 -3.582,8 -8,8 h -104 v -144 h 104 c 4.418,0 8,3.582 8,8 v 56"
   id="path17" />
	<path
   style="fill:none;stroke:#000000;stroke-width:15;stroke-miterlimit:10"
   d="m 151.5,359.5 c -39.765,0 -72,-32.236 -72,-72 0,-39.764 32.235,-72 72,-72"
   id="path18" />
	<rect
   x="183.5"
   y="215.5"
   style="fill:#ffffff"
   width="144"
   height="144"
   id="rect18" />
	<rect
   x="183.5"
   y="255.5"
   style="fill:#c6fff6"
   width="144"
   height="16"
   id="rect19" />
	<rect
   x="311.5"
   y="215.5"
   style="fill:#c6fff6"
   width="16"
   height="144"
   id="rect20" />
	<rect
   x="183.5"
   y="215.5"
   style="fill:#d7fc7e"
   width="144"
   height="40"
   id="rect21" />
	<rect
   x="311.5"
   y="215.5"
   style="fill:#55e072"
   width="16"
   height="40"
   id="rect22" />
	<rect
   x="183.5"
   y="215.5"
   style="fill:none;stroke:#000000;stroke-width:15;stroke-miterlimit:10"
   width="144"
   height="144"
   id="rect23" />
	<line
   style="fill:none;stroke:#000000;stroke-width:15;stroke-miterlimit:10"
   x1="183.5"
   y1="255.5"
   x2="327.5"
   y2="255.5"
   id="line23" />
	<line
   style="fill:none;stroke:#000000;stroke-width:15;stroke-miterlimit:10"
   x1="207.5"
   y1="287.5"
   x2="303.5"
   y2="287.5"
   id="line24" />
	<line
   style="fill:none;stroke:#000000;stroke-width:15;stroke-miterlimit:10"
   x1="207.5"
   y1="319.5"
   x2="303.5"
   y2="319.5"
   id="line25" />
	<line
   style="fill:none;stroke:#000000;stroke-width:15;stroke-miterlimit:10"
   x1="39.5"
   y1="119.5"
   x2="55.5"
   y2="119.5"
   id="line26" />
	<line
   style="fill:none;stroke:#000000;stroke-width:15;stroke-miterlimit:10"
   x1="39.5"
   y1="391.5"
   x2="55.5"
   y2="391.5"
   id="line27" />
	<line
   style="fill:none;stroke:#000000;stroke-width:15;stroke-miterlimit:10"
   x1="455.5"
   y1="119.5"
   x2="471.5"
   y2="119.5"
   id="line28" />
	<line
   style="fill:none;stroke:#000000;stroke-width:15;stroke-miterlimit:10"
   x1="455.5"
   y1="391.5"
   x2="471.5"
   y2="391.5"
   id="line29" />
	<line
   style="fill:none;stroke:#ffffff;stroke-width:15;stroke-miterlimit:10"
   x1="71.5"
   y1="119.5"
   x2="439.5"
   y2="119.5"
   id="line30" />
	<g
   id="g33">
		<line
   style="fill:none;stroke:#ffffff;stroke-width:15;stroke-miterlimit:10"
   x1="215.5"
   y1="183.5"
   x2="231.5"
   y2="183.5"
   id="line31" />
		<line
   style="fill:none;stroke:#ffffff;stroke-width:15;stroke-miterlimit:10"
   x1="247.5"
   y1="183.5"
   x2="263.5"
   y2="183.5"
   id="line32" />
		<line
   style="fill:none;stroke:#ffffff;stroke-width:15;stroke-miterlimit:10"
   x1="279.5"
   y1="183.5"
   x2="295.5"
   y2="183.5"
   id="line33" />
	</g>
</g>















</svg>
